<svg xmlns="http://www.w3.org/2000/svg" xmlns:xlink="http://www.w3.org/1999/xlink" width="500" zoomAndPan="magnify" viewBox="0 0 375 374.999991" height="500" preserveAspectRatio="xMidYMid meet" version="1.0"><defs><clipPath id="423f0576a7"><path d="M 26.582031 26.582031 L 348.332031 26.582031 L 348.332031 348.332031 L 26.582031 348.332031 Z M 26.582031 26.582031 " clip-rule="nonzero"/></clipPath></defs><path fill="#000000" d="M 139.195312 133.832031 L 149.917969 133.832031 L 149.917969 144.558594 L 139.195312 144.558594 Z M 139.195312 133.832031 " fill-opacity="1" fill-rule="nonzero"/><path fill="#000000" d="M 139.195312 155.28125 L 149.917969 155.28125 L 149.917969 166.007812 L 139.195312 166.007812 Z M 139.195312 155.28125 " fill-opacity="1" fill-rule="nonzero"/><path fill="#000000" d="M 139.195312 176.730469 L 149.917969 176.730469 L 149.917969 187.457031 L 139.195312 187.457031 Z M 139.195312 176.730469 " fill-opacity="1" fill-rule="nonzero"/><path fill="#000000" d="M 139.195312 198.183594 L 149.917969 198.183594 L 149.917969 208.90625 L 139.195312 208.90625 Z M 139.195312 198.183594 " fill-opacity="1" fill-rule="nonzero"/><path fill="#000000" d="M 160.644531 133.832031 L 171.371094 133.832031 L 171.371094 144.558594 L 160.644531 144.558594 Z M 160.644531 133.832031 " fill-opacity="1" fill-rule="nonzero"/><path fill="#000000" d="M 160.644531 155.28125 L 171.371094 155.28125 L 171.371094 166.007812 L 160.644531 166.007812 Z M 160.644531 155.28125 " fill-opacity="1" fill-rule="nonzero"/><path fill="#000000" d="M 160.644531 176.730469 L 171.371094 176.730469 L 171.371094 187.457031 L 160.644531 187.457031 Z M 160.644531 176.730469 " fill-opacity="1" fill-rule="nonzero"/><path fill="#000000" d="M 160.644531 198.183594 L 171.371094 198.183594 L 171.371094 208.90625 L 160.644531 208.90625 Z M 160.644531 198.183594 " fill-opacity="1" fill-rule="nonzero"/><path fill="#000000" d="M 182.09375 133.832031 L 192.820312 133.832031 L 192.820312 144.558594 L 182.09375 144.558594 Z M 182.09375 133.832031 " fill-opacity="1" fill-rule="nonzero"/><path fill="#000000" d="M 182.09375 155.28125 L 192.820312 155.28125 L 192.820312 166.007812 L 182.09375 166.007812 Z M 182.09375 155.28125 " fill-opacity="1" fill-rule="nonzero"/><path fill="#000000" d="M 182.09375 176.730469 L 192.820312 176.730469 L 192.820312 187.457031 L 182.09375 187.457031 Z M 182.09375 176.730469 " fill-opacity="1" fill-rule="nonzero"/><path fill="#000000" d="M 182.09375 198.183594 L 192.820312 198.183594 L 192.820312 208.90625 L 182.09375 208.90625 Z M 182.09375 198.183594 " fill-opacity="1" fill-rule="nonzero"/><path fill="#000000" d="M 203.542969 133.832031 L 214.269531 133.832031 L 214.269531 144.558594 L 203.542969 144.558594 Z M 203.542969 133.832031 " fill-opacity="1" fill-rule="nonzero"/><path fill="#000000" d="M 160.644531 112.382812 L 171.371094 112.382812 L 171.371094 123.105469 L 160.644531 123.105469 Z M 160.644531 112.382812 " fill-opacity="1" fill-rule="nonzero"/><path fill="#000000" d="M 182.09375 112.382812 L 192.820312 112.382812 L 192.820312 123.105469 L 182.09375 123.105469 Z M 182.09375 112.382812 " fill-opacity="1" fill-rule="nonzero"/><path fill="#000000" d="M 203.542969 112.382812 L 214.269531 112.382812 L 214.269531 123.105469 L 203.542969 123.105469 Z M 203.542969 112.382812 " fill-opacity="1" fill-rule="nonzero"/><path fill="#000000" d="M 203.542969 155.28125 L 214.269531 155.28125 L 214.269531 166.007812 L 203.542969 166.007812 Z M 203.542969 155.28125 " fill-opacity="1" fill-rule="nonzero"/><path fill="#000000" d="M 203.542969 176.730469 L 214.269531 176.730469 L 214.269531 187.457031 L 203.542969 187.457031 Z M 203.542969 176.730469 " fill-opacity="1" fill-rule="nonzero"/><path fill="#000000" d="M 203.542969 198.183594 L 214.269531 198.183594 L 214.269531 208.90625 L 203.542969 208.90625 Z M 203.542969 198.183594 " fill-opacity="1" fill-rule="nonzero"/><path fill="#000000" d="M 224.996094 133.832031 L 235.71875 133.832031 L 235.71875 144.558594 L 224.996094 144.558594 Z M 224.996094 133.832031 " fill-opacity="1" fill-rule="nonzero"/><path fill="#000000" d="M 224.996094 155.28125 L 235.71875 155.28125 L 235.71875 166.007812 L 224.996094 166.007812 Z M 224.996094 155.28125 " fill-opacity="1" fill-rule="nonzero"/><path fill="#000000" d="M 224.996094 176.730469 L 235.71875 176.730469 L 235.71875 187.457031 L 224.996094 187.457031 Z M 224.996094 176.730469 " fill-opacity="1" fill-rule="nonzero"/><path fill="#000000" d="M 224.996094 198.183594 L 235.71875 198.183594 L 235.71875 208.90625 L 224.996094 208.90625 Z M 224.996094 198.183594 " fill-opacity="1" fill-rule="nonzero"/><g clip-path="url(#423f0576a7)"><path fill="#000000" d="M 342.96875 107.019531 L 262.53125 107.019531 L 262.53125 31.945312 C 262.53125 28.980469 260.136719 26.582031 257.167969 26.582031 L 117.746094 26.582031 C 114.78125 26.582031 112.382812 28.980469 112.382812 31.945312 L 112.382812 107.019531 L 31.945312 107.019531 C 28.980469 107.019531 26.582031 109.417969 26.582031 112.382812 L 26.582031 305.433594 C 26.582031 308.398438 28.980469 310.792969 31.945312 310.792969 L 43.152344 310.792969 C 42.859375 312.542969 42.667969 314.328125 42.667969 316.15625 L 42.667969 342.96875 C 42.667969 345.933594 45.066406 348.332031 48.03125 348.332031 L 326.882812 348.332031 C 329.847656 348.332031 332.246094 345.933594 332.246094 342.96875 L 332.246094 316.15625 C 332.246094 314.328125 332.058594 312.542969 331.761719 310.792969 L 342.96875 310.792969 C 345.933594 310.792969 348.332031 308.398438 348.332031 305.433594 L 348.332031 112.382812 C 348.332031 109.417969 345.933594 107.019531 342.96875 107.019531 Z M 257.167969 257.167969 C 257.167969 263.085938 252.359375 267.894531 246.445312 267.894531 C 240.53125 267.894531 235.71875 263.085938 235.71875 257.167969 C 235.71875 251.253906 240.53125 246.445312 246.445312 246.445312 C 252.359375 246.445312 257.167969 251.253906 257.167969 257.167969 Z M 128.46875 246.445312 C 134.382812 246.445312 139.195312 251.253906 139.195312 257.167969 C 139.195312 263.085938 134.382812 267.894531 128.46875 267.894531 C 122.554688 267.894531 117.746094 263.085938 117.746094 257.167969 C 117.746094 251.253906 122.554688 246.445312 128.46875 246.445312 Z M 96.292969 337.605469 L 53.394531 337.605469 L 53.394531 316.15625 C 53.394531 304.328125 63.015625 294.707031 74.84375 294.707031 C 86.675781 294.707031 96.292969 304.328125 96.292969 316.15625 Z M 64.121094 273.257812 C 64.121094 267.34375 68.929688 262.53125 74.84375 262.53125 C 80.757812 262.53125 85.570312 267.34375 85.570312 273.257812 C 85.570312 279.171875 80.757812 283.980469 74.84375 283.980469 C 68.929688 283.980469 64.121094 279.171875 64.121094 273.257812 Z M 97.109375 292.980469 C 95.09375 291.039062 92.832031 289.351562 90.363281 287.988281 C 94.015625 284.136719 96.292969 278.972656 96.292969 273.257812 C 96.292969 261.425781 86.675781 251.808594 74.84375 251.808594 C 63.015625 251.808594 53.394531 261.425781 53.394531 273.257812 C 53.394531 278.972656 55.675781 284.136719 59.332031 287.988281 C 54.210938 290.820312 49.957031 295.011719 47.023438 300.070312 L 37.308594 300.070312 L 37.308594 117.746094 L 112.382812 117.746094 L 112.382812 243.128906 C 109.085938 246.902344 107.019531 251.773438 107.019531 257.167969 C 107.019531 262.886719 109.300781 268.050781 112.957031 271.902344 C 105.03125 276.28125 99.160156 283.914062 97.109375 292.980469 Z M 149.917969 337.605469 L 107.019531 337.605469 L 107.019531 300.070312 C 107.019531 288.238281 116.640625 278.621094 128.46875 278.621094 C 140.300781 278.621094 149.917969 288.238281 149.917969 300.070312 Z M 214.269531 337.605469 L 160.644531 337.605469 L 160.644531 300.070312 C 160.644531 285.285156 172.671875 273.257812 187.457031 273.257812 C 202.242188 273.257812 214.269531 285.285156 214.269531 300.070312 Z M 171.371094 246.445312 C 171.371094 237.574219 178.585938 230.355469 187.457031 230.355469 C 196.328125 230.355469 203.542969 237.574219 203.542969 246.445312 C 203.542969 255.3125 196.328125 262.53125 187.457031 262.53125 C 178.585938 262.53125 171.371094 255.3125 171.371094 246.445312 Z M 220.113281 281.632812 C 216.53125 275.316406 211.179688 270.140625 204.730469 266.78125 C 210.515625 261.855469 214.269531 254.617188 214.269531 246.445312 C 214.269531 231.660156 202.242188 219.632812 187.457031 219.632812 C 172.671875 219.632812 160.644531 231.660156 160.644531 246.445312 C 160.644531 254.617188 164.398438 261.855469 170.183594 266.78125 C 163.734375 270.140625 158.382812 275.316406 154.800781 281.632812 C 151.984375 277.628906 148.296875 274.28125 143.988281 271.902344 C 147.640625 268.050781 149.917969 262.886719 149.917969 257.167969 C 149.917969 245.339844 140.300781 235.71875 128.46875 235.71875 C 126.609375 235.71875 124.835938 236.03125 123.105469 236.480469 L 123.105469 37.308594 L 251.808594 37.308594 L 251.808594 236.480469 C 250.082031 236.03125 248.304688 235.71875 246.445312 235.71875 C 234.613281 235.71875 224.996094 245.339844 224.996094 257.167969 C 224.996094 262.886719 227.273438 268.050781 230.929688 271.902344 C 226.625 274.28125 222.929688 277.628906 220.113281 281.632812 Z M 267.894531 316.15625 L 267.894531 337.605469 L 224.996094 337.605469 L 224.996094 300.070312 C 224.996094 288.238281 234.613281 278.621094 246.445312 278.621094 C 258.273438 278.621094 267.894531 288.238281 267.894531 300.070312 Z M 321.519531 337.605469 L 278.621094 337.605469 L 278.621094 316.15625 C 278.621094 304.328125 288.238281 294.707031 300.070312 294.707031 C 311.898438 294.707031 321.519531 304.328125 321.519531 316.15625 Z M 289.34375 273.257812 C 289.34375 267.34375 294.15625 262.53125 300.070312 262.53125 C 305.984375 262.53125 310.792969 267.34375 310.792969 273.257812 C 310.792969 279.171875 305.984375 283.980469 300.070312 283.980469 C 294.15625 283.980469 289.34375 279.171875 289.34375 273.257812 Z M 337.605469 300.070312 L 327.890625 300.070312 C 324.957031 295.011719 320.703125 290.820312 315.582031 287.988281 C 319.242188 284.136719 321.519531 278.972656 321.519531 273.257812 C 321.519531 261.425781 311.898438 251.808594 300.070312 251.808594 C 288.238281 251.808594 278.621094 261.425781 278.621094 273.257812 C 278.621094 278.972656 280.898438 284.136719 284.554688 287.988281 C 282.089844 289.355469 279.828125 291.039062 277.808594 292.980469 C 275.761719 283.914062 269.890625 276.28125 261.964844 271.902344 C 265.617188 268.050781 267.894531 262.886719 267.894531 257.167969 C 267.894531 251.773438 265.832031 246.902344 262.53125 243.128906 L 262.53125 117.746094 L 337.605469 117.746094 Z M 337.605469 300.070312 " fill-opacity="1" fill-rule="nonzero"/></g><path fill="#000000" d="M 278.621094 149.917969 L 289.34375 149.917969 L 289.34375 235.71875 L 278.621094 235.71875 Z M 278.621094 149.917969 " fill-opacity="1" fill-rule="nonzero"/><path fill="#000000" d="M 310.792969 149.917969 L 321.519531 149.917969 L 321.519531 235.71875 L 310.792969 235.71875 Z M 310.792969 149.917969 " fill-opacity="1" fill-rule="nonzero"/><path fill="#000000" d="M 53.394531 149.917969 L 64.121094 149.917969 L 64.121094 235.71875 L 53.394531 235.71875 Z M 53.394531 149.917969 " fill-opacity="1" fill-rule="nonzero"/><path fill="#000000" d="M 85.570312 149.917969 L 96.292969 149.917969 L 96.292969 235.71875 L 85.570312 235.71875 Z M 85.570312 149.917969 " fill-opacity="1" fill-rule="nonzero"/><path fill="#000000" d="M 155.28125 101.65625 L 219.632812 101.65625 C 222.597656 101.65625 224.996094 99.261719 224.996094 96.292969 L 224.996094 53.394531 C 224.996094 50.429688 222.597656 48.03125 219.632812 48.03125 L 155.28125 48.03125 C 152.316406 48.03125 149.917969 50.429688 149.917969 53.394531 L 149.917969 96.292969 C 149.917969 99.261719 152.316406 101.65625 155.28125 101.65625 Z M 160.644531 58.757812 L 214.269531 58.757812 L 214.269531 90.933594 L 160.644531 90.933594 Z M 160.644531 58.757812 " fill-opacity="1" fill-rule="nonzero"/></svg>