<svg xmlns="http://www.w3.org/2000/svg" xmlns:xlink="http://www.w3.org/1999/xlink" width="512" zoomAndPan="magnify" viewBox="0 0 384 383.999986" height="512" preserveAspectRatio="xMidYMid meet" version="1.0"><defs><g/><clipPath id="9ce151709d"><path d="M 19.199219 19.199219 L 364.949219 19.199219 L 364.949219 364.949219 L 19.199219 364.949219 Z M 19.199219 19.199219 " clip-rule="nonzero"/></clipPath></defs><path fill="#000000" d="M 140.210938 134.449219 L 151.738281 134.449219 L 151.738281 145.976562 L 140.210938 145.976562 Z M 140.210938 134.449219 " fill-opacity="1" fill-rule="nonzero"/><path fill="#000000" d="M 140.210938 157.5 L 151.738281 157.5 L 151.738281 169.023438 L 140.210938 169.023438 Z M 140.210938 157.5 " fill-opacity="1" fill-rule="nonzero"/><path fill="#000000" d="M 140.210938 180.550781 L 151.738281 180.550781 L 151.738281 192.074219 L 140.210938 192.074219 Z M 140.210938 180.550781 " fill-opacity="1" fill-rule="nonzero"/><path fill="#000000" d="M 140.210938 203.601562 L 151.738281 203.601562 L 151.738281 215.125 L 140.210938 215.125 Z M 140.210938 203.601562 " fill-opacity="1" fill-rule="nonzero"/><path fill="#000000" d="M 163.261719 134.449219 L 174.789062 134.449219 L 174.789062 145.976562 L 163.261719 145.976562 Z M 163.261719 134.449219 " fill-opacity="1" fill-rule="nonzero"/><path fill="#000000" d="M 163.261719 157.5 L 174.789062 157.5 L 174.789062 169.023438 L 163.261719 169.023438 Z M 163.261719 157.5 " fill-opacity="1" fill-rule="nonzero"/><path fill="#000000" d="M 163.261719 180.550781 L 174.789062 180.550781 L 174.789062 192.074219 L 163.261719 192.074219 Z M 163.261719 180.550781 " fill-opacity="1" fill-rule="nonzero"/><path fill="#000000" d="M 163.261719 203.601562 L 174.789062 203.601562 L 174.789062 215.125 L 163.261719 215.125 Z M 163.261719 203.601562 " fill-opacity="1" fill-rule="nonzero"/><path fill="#000000" d="M 186.3125 134.449219 L 197.835938 134.449219 L 197.835938 145.976562 L 186.3125 145.976562 Z M 186.3125 134.449219 " fill-opacity="1" fill-rule="nonzero"/><path fill="#000000" d="M 186.3125 157.5 L 197.835938 157.5 L 197.835938 169.023438 L 186.3125 169.023438 Z M 186.3125 157.5 " fill-opacity="1" fill-rule="nonzero"/><path fill="#000000" d="M 186.3125 180.550781 L 197.835938 180.550781 L 197.835938 192.074219 L 186.3125 192.074219 Z M 186.3125 180.550781 " fill-opacity="1" fill-rule="nonzero"/><path fill="#000000" d="M 186.3125 203.601562 L 197.835938 203.601562 L 197.835938 215.125 L 186.3125 215.125 Z M 186.3125 203.601562 " fill-opacity="1" fill-rule="nonzero"/><path fill="#000000" d="M 209.363281 134.449219 L 220.886719 134.449219 L 220.886719 145.976562 L 209.363281 145.976562 Z M 209.363281 134.449219 " fill-opacity="1" fill-rule="nonzero"/><path fill="#000000" d="M 163.261719 111.398438 L 174.789062 111.398438 L 174.789062 122.925781 L 163.261719 122.925781 Z M 163.261719 111.398438 " fill-opacity="1" fill-rule="nonzero"/><path fill="#000000" d="M 186.3125 111.398438 L 197.835938 111.398438 L 197.835938 122.925781 L 186.3125 122.925781 Z M 186.3125 111.398438 " fill-opacity="1" fill-rule="nonzero"/><path fill="#000000" d="M 209.363281 111.398438 L 220.886719 111.398438 L 220.886719 122.925781 L 209.363281 122.925781 Z M 209.363281 111.398438 " fill-opacity="1" fill-rule="nonzero"/><path fill="#000000" d="M 209.363281 157.5 L 220.886719 157.5 L 220.886719 169.023438 L 209.363281 169.023438 Z M 209.363281 157.5 " fill-opacity="1" fill-rule="nonzero"/><path fill="#000000" d="M 209.363281 180.550781 L 220.886719 180.550781 L 220.886719 192.074219 L 209.363281 192.074219 Z M 209.363281 180.550781 " fill-opacity="1" fill-rule="nonzero"/><path fill="#000000" d="M 209.363281 203.601562 L 220.886719 203.601562 L 220.886719 215.125 L 209.363281 215.125 Z M 209.363281 203.601562 " fill-opacity="1" fill-rule="nonzero"/><path fill="#000000" d="M 232.414062 134.449219 L 243.9375 134.449219 L 243.9375 145.976562 L 232.414062 145.976562 Z M 232.414062 134.449219 " fill-opacity="1" fill-rule="nonzero"/><path fill="#000000" d="M 232.414062 157.5 L 243.9375 157.5 L 243.9375 169.023438 L 232.414062 169.023438 Z M 232.414062 157.5 " fill-opacity="1" fill-rule="nonzero"/><path fill="#000000" d="M 232.414062 180.550781 L 243.9375 180.550781 L 243.9375 192.074219 L 232.414062 192.074219 Z M 232.414062 180.550781 " fill-opacity="1" fill-rule="nonzero"/><path fill="#000000" d="M 232.414062 203.601562 L 243.9375 203.601562 L 243.9375 215.125 L 232.414062 215.125 Z M 232.414062 203.601562 " fill-opacity="1" fill-rule="nonzero"/><g clip-path="url(#9ce151709d)"><path fill="#000000" d="M 359.1875 105.636719 L 272.75 105.636719 L 272.75 24.960938 C 272.75 21.777344 270.175781 19.199219 266.988281 19.199219 L 117.164062 19.199219 C 113.976562 19.199219 111.398438 21.777344 111.398438 24.960938 L 111.398438 105.636719 L 24.960938 105.636719 C 21.777344 105.636719 19.199219 108.214844 19.199219 111.398438 L 19.199219 318.851562 C 19.199219 322.035156 21.777344 324.613281 24.960938 324.613281 L 37.007812 324.613281 C 36.6875 326.492188 36.488281 328.410156 36.488281 330.375 L 36.488281 359.1875 C 36.488281 362.375 39.0625 364.949219 42.25 364.949219 L 341.898438 364.949219 C 345.085938 364.949219 347.664062 362.375 347.664062 359.1875 L 347.664062 330.375 C 347.664062 328.410156 347.460938 326.492188 347.144531 324.613281 L 359.1875 324.613281 C 362.375 324.613281 364.949219 322.035156 364.949219 318.851562 L 364.949219 111.398438 C 364.949219 108.214844 362.375 105.636719 359.1875 105.636719 Z M 266.988281 266.988281 C 266.988281 273.34375 261.820312 278.511719 255.460938 278.511719 C 249.105469 278.511719 243.9375 273.34375 243.9375 266.988281 C 243.9375 260.632812 249.105469 255.460938 255.460938 255.460938 C 261.820312 255.460938 266.988281 260.632812 266.988281 266.988281 Z M 128.6875 255.460938 C 135.042969 255.460938 140.210938 260.632812 140.210938 266.988281 C 140.210938 273.34375 135.042969 278.511719 128.6875 278.511719 C 122.332031 278.511719 117.164062 273.34375 117.164062 266.988281 C 117.164062 260.632812 122.332031 255.460938 128.6875 255.460938 Z M 94.113281 353.425781 L 48.011719 353.425781 L 48.011719 330.375 C 48.011719 317.664062 58.351562 307.324219 71.0625 307.324219 C 83.773438 307.324219 94.113281 317.664062 94.113281 330.375 Z M 59.539062 284.273438 C 59.539062 277.917969 64.707031 272.75 71.0625 272.75 C 77.417969 272.75 82.585938 277.917969 82.585938 284.273438 C 82.585938 290.632812 77.417969 295.800781 71.0625 295.800781 C 64.707031 295.800781 59.539062 290.632812 59.539062 284.273438 Z M 94.988281 305.46875 C 92.820312 303.382812 90.390625 301.566406 87.738281 300.105469 C 91.664062 295.96875 94.113281 290.417969 94.113281 284.273438 C 94.113281 271.5625 83.773438 261.226562 71.0625 261.226562 C 58.351562 261.226562 48.011719 271.5625 48.011719 284.273438 C 48.011719 290.417969 50.460938 295.96875 54.390625 300.105469 C 48.886719 303.148438 44.320312 307.652344 41.167969 313.085938 L 30.726562 313.085938 L 30.726562 117.164062 L 111.398438 117.164062 L 111.398438 251.902344 C 107.855469 255.953125 105.636719 261.191406 105.636719 266.988281 C 105.636719 273.128906 108.085938 278.679688 112.015625 282.816406 C 103.5 287.523438 97.191406 295.726562 94.988281 305.46875 Z M 151.738281 353.425781 L 105.636719 353.425781 L 105.636719 313.085938 C 105.636719 300.375 115.976562 290.039062 128.6875 290.039062 C 141.398438 290.039062 151.738281 300.375 151.738281 313.085938 Z M 220.886719 353.425781 L 163.261719 353.425781 L 163.261719 313.085938 C 163.261719 297.199219 176.1875 284.273438 192.074219 284.273438 C 207.960938 284.273438 220.886719 297.199219 220.886719 313.085938 Z M 174.789062 255.460938 C 174.789062 245.929688 182.542969 238.175781 192.074219 238.175781 C 201.605469 238.175781 209.363281 245.929688 209.363281 255.460938 C 209.363281 264.992188 201.605469 272.75 192.074219 272.75 C 182.542969 272.75 174.789062 264.992188 174.789062 255.460938 Z M 227.167969 293.277344 C 223.320312 286.488281 217.566406 280.925781 210.636719 277.3125 C 216.855469 272.023438 220.886719 264.246094 220.886719 255.460938 C 220.886719 239.574219 207.960938 226.648438 192.074219 226.648438 C 176.1875 226.648438 163.261719 239.574219 163.261719 255.460938 C 163.261719 264.246094 167.296875 272.023438 173.515625 277.3125 C 166.582031 280.925781 160.832031 286.488281 156.980469 293.277344 C 153.957031 288.972656 149.992188 285.375 145.363281 282.816406 C 149.289062 278.679688 151.738281 273.128906 151.738281 266.988281 C 151.738281 254.277344 141.398438 243.9375 128.6875 243.9375 C 126.6875 243.9375 124.78125 244.273438 122.925781 244.753906 L 122.925781 30.726562 L 261.226562 30.726562 L 261.226562 244.753906 C 259.371094 244.273438 257.460938 243.9375 255.460938 243.9375 C 242.75 243.9375 232.414062 254.277344 232.414062 266.988281 C 232.414062 273.128906 234.863281 278.679688 238.792969 282.816406 C 234.164062 285.375 230.195312 288.972656 227.167969 293.277344 Z M 278.511719 330.375 L 278.511719 353.425781 L 232.414062 353.425781 L 232.414062 313.085938 C 232.414062 300.375 242.75 290.039062 255.460938 290.039062 C 268.175781 290.039062 278.511719 300.375 278.511719 313.085938 Z M 336.136719 353.425781 L 290.039062 353.425781 L 290.039062 330.375 C 290.039062 317.664062 300.375 307.324219 313.085938 307.324219 C 325.800781 307.324219 336.136719 317.664062 336.136719 330.375 Z M 301.5625 284.273438 C 301.5625 277.917969 306.730469 272.75 313.085938 272.75 C 319.445312 272.75 324.613281 277.917969 324.613281 284.273438 C 324.613281 290.632812 319.445312 295.800781 313.085938 295.800781 C 306.730469 295.800781 301.5625 290.632812 301.5625 284.273438 Z M 353.425781 313.085938 L 342.984375 313.085938 C 339.832031 307.652344 335.261719 303.148438 329.757812 300.105469 C 333.6875 295.96875 336.136719 290.417969 336.136719 284.273438 C 336.136719 271.5625 325.800781 261.226562 313.085938 261.226562 C 300.375 261.226562 290.039062 271.5625 290.039062 284.273438 C 290.039062 290.417969 292.488281 295.96875 296.417969 300.105469 C 293.765625 301.574219 291.335938 303.382812 289.167969 305.46875 C 286.964844 295.726562 280.65625 287.523438 272.140625 282.816406 C 276.0625 278.679688 278.511719 273.128906 278.511719 266.988281 C 278.511719 261.191406 276.292969 255.953125 272.75 251.902344 L 272.75 117.164062 L 353.425781 117.164062 Z M 353.425781 313.085938 " fill-opacity="1" fill-rule="nonzero"/></g><path fill="#000000" d="M 290.039062 151.738281 L 301.5625 151.738281 L 301.5625 243.9375 L 290.039062 243.9375 Z M 290.039062 151.738281 " fill-opacity="1" fill-rule="nonzero"/><path fill="#000000" d="M 324.613281 151.738281 L 336.136719 151.738281 L 336.136719 243.9375 L 324.613281 243.9375 Z M 324.613281 151.738281 " fill-opacity="1" fill-rule="nonzero"/><path fill="#000000" d="M 48.011719 151.738281 L 59.539062 151.738281 L 59.539062 243.9375 L 48.011719 243.9375 Z M 48.011719 151.738281 " fill-opacity="1" fill-rule="nonzero"/><path fill="#000000" d="M 82.585938 151.738281 L 94.113281 151.738281 L 94.113281 243.9375 L 82.585938 243.9375 Z M 82.585938 151.738281 " fill-opacity="1" fill-rule="nonzero"/><path fill="#000000" d="M 157.5 99.875 L 226.648438 99.875 C 229.835938 99.875 232.414062 97.300781 232.414062 94.113281 L 232.414062 48.011719 C 232.414062 44.824219 229.835938 42.25 226.648438 42.25 L 157.5 42.25 C 154.3125 42.25 151.738281 44.824219 151.738281 48.011719 L 151.738281 94.113281 C 151.738281 97.300781 154.3125 99.875 157.5 99.875 Z M 163.261719 53.773438 L 220.886719 53.773438 L 220.886719 88.351562 L 163.261719 88.351562 Z M 163.261719 53.773438 " fill-opacity="1" fill-rule="nonzero"/><g fill="#000000" fill-opacity="1"><g transform="translate(186.439444, 190.434388)"><g><path d="M 2.71875 0 L 2.71875 -5.953125 L 8.359375 -5.953125 L 8.359375 0 Z M 2.71875 0 "/></g></g></g></svg>